<svg width="39" height="39" viewBox="0 0 39 39" fill="none" xmlns="http://www.w3.org/2000/svg">
<path d="M1.80078 30.2492C3.59844 34.0274 6.76414 33.8689 10.1157 33.7044C11.6605 33.6282 13.4124 33.5399 15.3959 33.7531C23.979 34.6794 31.4316 32.0195 35.3316 26.6387C38.15 22.7539 38.5857 18.0465 36.526 13.723C34.4694 9.39948 30.5389 6.77002 25.7492 6.50494C19.1162 6.13932 12.3521 10.2435 7.65688 17.4889C6.57219 19.1647 5.39914 20.4688 4.36625 21.6174C2.12071 24.1159 0.00312841 26.4742 1.80078 30.2492Z" fill="url(#paint0_radial_263_259)"/>
<g opacity="0.2">
<path d="M24.9264 7.40355C25.1823 7.40355 25.4413 7.40965 25.6942 7.42488C30.1396 7.66863 33.7836 10.1092 35.691 14.1189C37.5983 18.1286 37.1961 22.4947 34.5819 26.0992C31.3979 30.4928 25.6089 33.0125 18.7047 33.0125C17.6535 33.0125 16.5718 32.9546 15.4902 32.8358C14.6188 32.7414 13.723 32.6957 12.7511 32.6957C11.7883 32.6957 10.9138 32.7383 10.0637 32.781C9.37817 32.8145 8.72919 32.848 8.09544 32.848C5.60005 32.848 3.81458 32.3483 2.6263 29.8529C1.09372 26.6293 2.83653 24.6915 5.04247 22.2357C6.09974 21.0596 7.29716 19.7282 8.42146 17.9914C12.7236 11.3614 18.8905 7.40355 24.9264 7.40355ZM24.9264 6.4834C18.5584 6.4834 12.1569 10.5449 7.65364 17.4887C6.56896 19.1645 5.39591 20.4686 4.36302 21.6172C2.12052 24.1157 0.0029397 26.4739 1.8006 30.249C3.23263 33.2563 5.53302 33.7712 8.10153 33.7712C8.75966 33.7712 9.43302 33.7377 10.1155 33.7042C10.9351 33.6646 11.8157 33.6189 12.7541 33.6189C13.5859 33.6189 14.4634 33.6524 15.3927 33.7529C16.517 33.8748 17.623 33.9327 18.7047 33.9327C25.8709 33.9327 31.9403 31.3124 35.3284 26.6385C38.1468 22.7537 38.5825 18.0463 36.5228 13.7228C34.4661 9.39926 30.5357 6.7698 25.746 6.50473C25.4718 6.48949 25.2006 6.4834 24.9264 6.4834Z" fill="#424242"/>
</g>
<path d="M14.6828 1.78538C10.8255 3.40632 10.8194 6.53241 10.8103 9.84436C10.8072 11.3708 10.8042 13.1015 10.4873 15.0454C9.12229 23.47 11.3861 30.9226 16.5445 34.9811C20.2708 37.9122 24.9386 38.5307 29.3505 36.6751C33.7624 34.8196 36.5868 31.0537 37.0987 26.3401C37.8056 19.8168 34.0671 12.9857 27.0928 8.06804C25.481 6.93155 24.2409 5.72499 23.1471 4.65858C20.7766 2.34601 18.5371 0.164443 14.6828 1.78538Z" fill="url(#paint1_linear_263_259)"/>
<g opacity="0.2">
<path d="M17.2149 2.13867C19.2533 2.13867 20.7615 3.60727 22.5104 5.31047C23.6286 6.3982 24.893 7.63219 26.5658 8.81133C33.2628 13.534 36.8612 20.0482 36.1908 26.2395C35.7155 30.6117 33.0952 34.1095 28.9972 35.831C27.4494 36.483 25.8619 36.8121 24.2776 36.8121C21.709 36.8121 19.2289 35.9285 17.1083 34.2619C12.218 30.4137 10.0791 23.284 11.3893 15.1915C11.7153 13.1745 11.7214 11.4073 11.7244 9.84422C11.7305 6.58711 11.7366 4.0125 15.0364 2.62617C15.8194 2.30016 16.5324 2.13867 17.2149 2.13867ZM17.2149 1.22461C16.4471 1.22461 15.6122 1.39523 14.6799 1.78523C10.8226 3.40617 10.8165 6.53227 10.8073 9.84422C10.8043 11.3707 10.8012 13.1013 10.4844 15.0452C9.11936 23.4698 11.3832 30.9225 16.5415 34.9809C18.8511 36.7999 21.5262 37.7292 24.2745 37.7292C25.9594 37.7292 27.6718 37.3819 29.3476 36.678C33.7594 34.8225 36.5839 31.0566 37.0958 26.343C37.8026 19.8197 34.0641 12.9886 27.0898 8.07094C25.478 6.93445 24.238 5.72789 23.1441 4.66148C21.3495 2.90344 19.628 1.22461 17.2149 1.22461Z" fill="#424242"/>
</g>
<path d="M15.152 2.90063C11.9162 4.25954 12.0198 7.14188 12.1264 10.1918C12.1752 11.5964 12.2331 13.193 12.032 14.9754C11.1575 22.6901 13.3482 29.6339 17.8942 33.5552C21.1757 36.3858 25.1823 37.117 28.8843 35.5601C32.5862 34.0031 34.8653 30.6302 35.1395 26.3037C35.5173 20.3166 32.0865 13.8907 25.9653 9.1193C24.5486 8.01634 23.4517 6.86157 22.4797 5.84087C20.3743 3.62884 18.3878 1.54173 15.152 2.90063Z" fill="url(#paint2_radial_263_259)"/>
<path d="M28.8203 19.6921C27.0988 16.7579 22.7753 13.58 20.158 14.6007C17.6748 15.5666 16.4134 19.5549 17.1325 22.8821C18.0892 27.3245 22.5346 30.2251 25.8161 28.9698C29.0793 27.6749 31.1207 23.6103 28.8203 19.6921Z" fill="#CCC465"/>
<path d="M28.1684 19.619C26.4743 17.0535 22.422 14.3936 20.1094 15.4387C17.9156 16.4289 16.9681 20.0882 17.7724 23.0559C18.848 27.0198 22.9978 29.4208 25.8985 28.132C28.7838 26.8096 30.4322 23.0467 28.1684 19.619Z" fill="url(#paint3_radial_263_259)"/>
<defs>
<radialGradient id="paint0_radial_263_259" cx="0" cy="0" r="1" gradientTransform="matrix(22.1488 -0.136529 -0.136529 21.9279 13.9392 17.1572)" gradientUnits="userSpaceOnUse">
<stop stop-color="#22B511"/>
<stop offset="0.9902" stop-color="#45590E"/>
</radialGradient>
<linearGradient id="paint1_linear_263_259" x1="14.2923" y1="2.19058" x2="29.6283" y2="36.5187" gradientUnits="userSpaceOnUse">
<stop stop-color="#5DB111"/>
<stop offset="0.9902" stop-color="#45590E"/>
</linearGradient>
<radialGradient id="paint2_radial_263_259" cx="0" cy="0" r="1" gradientTransform="matrix(16.1067 -6.10267 7.84752 20.7126 21.98 20.2273)" gradientUnits="userSpaceOnUse">
<stop stop-color="#FFF9C4"/>
<stop offset="0.1454" stop-color="#FCF7BD"/>
<stop offset="0.3507" stop-color="#F3F0AB"/>
<stop offset="0.5917" stop-color="#E4E58D"/>
<stop offset="0.8579" stop-color="#CFD663"/>
<stop offset="0.9311" stop-color="#C9D156"/>
<stop offset="0.9902" stop-color="#C9D13B"/>
</radialGradient>
<radialGradient id="paint3_radial_263_259" cx="0" cy="0" r="1" gradientUnits="userSpaceOnUse" gradientTransform="translate(21.4297 20.3127) scale(8.25721)">
<stop offset="0.0295" stop-color="#B37F58"/>
<stop offset="0.9951" stop-color="#7E3600"/>
</radialGradient>
</defs>
</svg>
