<svg width="39" height="39" viewBox="0 0 39 39" fill="none" xmlns="http://www.w3.org/2000/svg">
<g clip-path="url(#clip0_263_270)">
<path d="M11.9774 36.7603C11.9744 36.7603 9.86594 36.6536 8.80867 35.2246C6.43211 32.0071 5.27734 25.5996 5.27734 15.6393C5.27734 15.1457 5.35656 10.7796 8.48875 7.64129C10.585 5.54199 13.5862 4.47559 17.41 4.47559C21.2064 4.47559 24.1558 5.52371 26.182 7.59254C29.1374 10.6089 29.2045 14.8014 29.1862 15.6119C29.1862 25.6026 28.0314 32.0071 25.6518 35.2277C24.6189 36.6232 22.608 36.7572 22.4709 36.7633L17.2302 36.7572L11.9774 36.7603Z" fill="url(#paint0_radial_263_270)"/>
<path d="M17.4069 4.92969C21.0753 4.92969 23.915 5.93211 25.8528 7.90953C28.7412 10.8589 28.7382 15.1215 28.726 15.5998V15.6364C28.726 25.4961 27.5986 31.8153 25.283 34.9505C24.3994 36.1449 22.6201 36.2912 22.4586 36.3003L17.2301 36.2942L12.0047 36.3003C11.828 36.2881 10.0578 36.1388 9.17724 34.9505C6.86162 31.8153 5.73427 25.4961 5.73427 15.6303C5.73427 15.4445 5.75865 11.0204 8.81162 7.96133C10.8165 5.95039 13.7079 4.92969 17.4069 4.92969ZM17.4069 4.01562C4.71662 4.01562 4.81716 15.4536 4.81716 15.6364C4.81716 23.0434 5.39912 31.3766 8.4399 35.4959C9.64646 37.1291 11.9773 37.2174 11.9773 37.2174L17.2301 37.2113L22.4829 37.2174C22.4829 37.2174 24.8138 37.126 26.0204 35.4959C29.0611 31.3796 29.6431 23.0464 29.6431 15.6364C29.6431 15.4536 30.0971 4.01562 17.4069 4.01562Z" fill="#291D15"/>
<path d="M30.2006 33.5677C30.2006 33.5677 28.5645 22.0535 37.8117 20.7129C37.8117 20.7129 35.8983 23.2174 33.2871 26.3252C30.5297 29.6067 30.3317 31.968 30.2006 33.5677Z" fill="#7CB342"/>
<path d="M29.5394 35.6576C29.4632 35.6485 29.4083 35.5723 29.3474 35.6789L29.6795 29.4755C29.7648 29.0916 30.0421 29.1708 30.0421 29.1708C30.1183 29.18 30.3864 29.2348 30.3316 29.8381L29.6673 35.9379C29.6856 35.6058 29.6155 35.6668 29.5394 35.6576Z" fill="#388E3C"/>
<path d="M30.7063 28.857C30.5966 28.857 30.493 28.8539 30.4077 28.8509C30.4473 28.5675 30.5326 28.1074 30.6332 27.9246C30.8739 27.4615 31.2852 26.8704 31.8794 26.6632C32.1383 26.5718 32.4217 26.52 32.6807 26.52C32.8818 26.52 33.0646 26.5505 33.223 26.6084C33.1804 27.1507 32.8147 27.757 32.4461 28.147C32.1475 28.4517 31.7057 28.7199 31.3431 28.8113C31.2547 28.8326 31.0719 28.857 30.7063 28.857Z" fill="#FFCA28"/>
<path d="M32.6776 26.7485C32.7812 26.7485 32.8756 26.7577 32.964 26.7729C32.8696 27.2086 32.574 27.6717 32.2815 27.9825C32.0134 28.2567 31.6051 28.5066 31.2882 28.5858C31.2364 28.598 31.078 28.6285 30.7032 28.6285C30.6941 28.6285 30.6819 28.6285 30.6728 28.6285C30.7154 28.3908 30.7763 28.1349 30.8342 28.0252C31.0536 27.6047 31.4284 27.0624 31.9524 26.8765C32.1901 26.7942 32.446 26.7485 32.6776 26.7485ZM32.6776 26.2915C32.3699 26.2915 32.0591 26.3555 31.8001 26.4469C31.1877 26.6632 30.7367 27.2238 30.429 27.8119C30.2462 28.141 30.1426 29.0672 30.1487 29.0672C30.1578 29.0672 30.4107 29.0824 30.7032 29.0824C30.947 29.0824 31.2212 29.0703 31.3949 29.0276C31.8214 28.921 32.2967 28.6193 32.6075 28.2994C33.0158 27.8698 33.4698 27.1355 33.4485 26.456C33.2169 26.3403 32.9488 26.2915 32.6776 26.2915Z" fill="#F49019"/>
<path d="M29.7466 28.8207C29.32 28.6867 28.9971 28.5557 28.8417 28.4551C28.5218 28.2449 28.1805 27.8305 27.9947 27.4283C27.7692 26.9256 27.6229 26.2065 27.7692 25.6611C27.7753 25.6611 27.7814 25.6611 27.7875 25.6611C28.1897 25.6611 28.665 25.8531 29.0641 26.1761C29.5729 26.5843 29.771 27.3004 29.8472 27.8275C29.8837 28.0468 29.8045 28.5313 29.7466 28.8207Z" fill="#FFCA28"/>
<path d="M27.952 25.9048C28.2658 25.9474 28.6162 26.112 28.9209 26.3587C29.3688 26.7183 29.5485 27.3764 29.6217 27.873C29.643 27.998 29.6095 28.2722 29.5699 28.5251C29.2896 28.4276 29.0732 28.3362 28.9696 28.2691C28.6863 28.0802 28.3694 27.6963 28.2049 27.3398C28.019 26.9255 27.891 26.3648 27.952 25.9048ZM27.7875 25.4355C27.7235 25.4355 27.6625 25.4386 27.5985 25.4477C27.3487 26.0998 27.5376 26.9681 27.7875 27.5257C27.9794 27.9431 28.3389 28.4002 28.7167 28.65C29.061 28.8724 29.9172 29.1131 29.9172 29.1131C29.9233 29.1131 30.1366 28.1808 30.0726 27.7969C29.9751 27.1205 29.7283 26.4197 29.2073 25.9992C28.8386 25.7006 28.3115 25.4355 27.7875 25.4355Z" fill="#F49019"/>
<path d="M31.0506 22.8272C30.6636 22.6504 30.365 22.4859 30.231 22.3701C29.9507 22.1294 29.6734 21.6907 29.5424 21.2824C29.387 20.7736 29.3322 20.0667 29.5363 19.564C29.9964 19.6188 30.4351 19.9235 30.7124 20.2129C31.1511 20.6669 31.2547 21.3769 31.2639 21.8948C31.27 22.1081 31.139 22.556 31.0506 22.8272Z" fill="#FFCA28"/>
<path d="M29.6857 19.8262C30.0178 19.9176 30.3316 20.1522 30.5449 20.3716C30.9319 20.7708 31.0233 21.4197 31.0324 21.9072C31.0385 22.0261 30.9776 22.2759 30.9075 22.5075C30.6241 22.3673 30.4505 22.2607 30.3773 22.1967C30.1275 21.9834 29.8716 21.5782 29.7558 21.2156C29.6339 20.8073 29.576 20.2589 29.6857 19.8262ZM29.3962 19.3296C29.3932 19.3296 29.3932 19.3296 29.3902 19.3296C29.0702 19.9268 29.1495 20.789 29.3201 21.3558C29.4541 21.7823 29.7466 22.2637 30.0787 22.5501C30.3834 22.8061 31.1787 23.1412 31.1787 23.1412C31.1848 23.1412 31.5016 22.2698 31.4864 21.892C31.4742 21.2278 31.3219 20.524 30.8709 20.0578C30.5205 19.6861 29.966 19.3296 29.3962 19.3296Z" fill="#F49019"/>
<path d="M31.9585 20.1159C31.5929 19.8995 31.3126 19.7046 31.1907 19.5766C30.9348 19.3054 30.7062 18.8423 30.6179 18.4218C30.5173 17.9008 30.5356 17.1909 30.7916 16.7095C31.2394 16.81 31.6477 17.1604 31.8945 17.4773C32.2845 17.9739 32.3119 18.6899 32.2693 19.2049C32.2541 19.4212 32.0743 19.8538 31.9585 20.1159Z" fill="#FFCA28"/>
<path d="M30.9165 16.9866C31.2364 17.1146 31.5258 17.3766 31.7148 17.6203C32.056 18.056 32.0804 18.7142 32.0408 19.1986C32.0347 19.3174 31.9463 19.5612 31.8549 19.7836C31.5868 19.616 31.4283 19.4911 31.3613 19.421C31.1358 19.1834 30.9226 18.7538 30.8464 18.3821C30.7611 17.9555 30.7611 17.404 30.9165 16.9866ZM30.6727 16.4595C30.2919 17.0201 30.2797 17.8854 30.3924 18.4674C30.4838 18.9031 30.7215 19.4149 31.0231 19.7349C31.3004 20.0213 32.056 20.4356 32.056 20.4356C32.0621 20.4356 32.4704 19.6038 32.4948 19.226C32.5526 18.5649 32.4734 17.8488 32.0743 17.337C31.7574 16.9317 31.2425 16.5174 30.6727 16.4595Z" fill="#F49019"/>
<path d="M33.0402 17.4343C32.7112 17.16 32.4705 16.9254 32.3669 16.7792C32.1566 16.4714 32.0043 15.9779 31.986 15.5482C31.9677 15.0181 32.1018 14.3204 32.4278 13.8877C32.8544 14.0583 33.2017 14.4696 33.3937 14.82C33.6984 15.3715 33.613 16.0845 33.4881 16.5872C33.4424 16.7944 33.1987 17.1936 33.0402 17.4343Z" fill="#FFCA28"/>
<path d="M32.5071 14.1801C32.8027 14.3569 33.0464 14.6615 33.1927 14.9297C33.4608 15.4141 33.3816 16.0662 33.2628 16.5384C33.2353 16.6542 33.1135 16.8797 32.9855 17.0869C32.7478 16.8797 32.6107 16.7304 32.5528 16.6512C32.367 16.38 32.2268 15.9229 32.2085 15.5421C32.1994 15.1125 32.2878 14.5701 32.5071 14.1801ZM32.3517 13.6226C31.8856 14.1162 31.7393 14.9662 31.7576 15.5604C31.7759 16.0052 31.9343 16.5476 32.1811 16.9101C32.4096 17.2392 33.0891 17.7663 33.0891 17.7663C33.0952 17.7663 33.6284 17.0076 33.7137 16.642C33.8752 15.9961 33.9117 15.277 33.5979 14.7103C33.3481 14.2594 32.9063 13.7688 32.3517 13.6226Z" fill="#F49019"/>
<path d="M30.2249 25.8407C29.8197 25.6944 29.5119 25.5543 29.3657 25.4507C29.064 25.2313 28.7502 24.8169 28.5857 24.4178C28.3876 23.9211 28.278 23.2173 28.4394 22.6963C28.8355 22.7085 29.2926 22.9157 29.6704 23.2508C30.1457 23.6682 30.3102 24.3721 30.362 24.89C30.3864 25.1003 30.2919 25.5604 30.2249 25.8407Z" fill="#FFCA28"/>
<path d="M28.6131 22.9432C28.9574 23.0102 29.2956 23.2205 29.5211 23.4216C29.9416 23.7902 30.0848 24.4331 30.1366 24.9206C30.1518 25.0395 30.1092 25.2984 30.0604 25.5361C29.7649 25.4203 29.582 25.3259 29.5028 25.268C29.2347 25.073 28.9452 24.6891 28.802 24.3356C28.6375 23.9304 28.537 23.385 28.6131 22.9432ZM28.3999 22.4648C28.3602 22.4648 28.3206 22.4679 28.281 22.4709C28.0099 23.0955 28.1561 23.9517 28.3755 24.5032C28.5461 24.9176 28.8782 25.3777 29.2347 25.6366C29.5607 25.8682 30.3834 26.1363 30.3834 26.1394C30.3895 26.1394 30.6363 25.2405 30.5906 24.8658C30.5235 24.2016 30.3133 23.5099 29.8227 23.0803C29.4632 22.7573 28.9331 22.4648 28.3999 22.4648Z" fill="#F49019"/>
<path d="M31.6569 26.0965C31.4649 26.0965 31.1663 26.0599 30.8159 25.996C30.8982 25.7217 31.0505 25.2769 31.1785 25.1124C31.4862 24.6919 31.9798 24.1709 32.5983 24.0521C32.7537 24.0216 32.9183 24.0063 33.0767 24.0063C33.3174 24.0063 33.6465 24.0429 33.9329 24.1983C33.808 24.7285 33.357 25.2738 32.9365 25.6029C32.5983 25.8619 32.1169 26.0599 31.7483 26.0965C31.7208 26.0935 31.6904 26.0965 31.6569 26.0965Z" fill="#FFCA28"/>
<path d="M33.0768 24.2319C33.29 24.2319 33.4881 24.2624 33.6557 24.3233C33.4972 24.7408 33.1377 25.1551 32.7995 25.4172C32.4948 25.6487 32.053 25.8346 31.727 25.8651C31.7057 25.8681 31.6813 25.8681 31.6569 25.8681C31.5259 25.8681 31.337 25.8498 31.1146 25.8133C31.1938 25.5847 31.2882 25.341 31.3644 25.2435C31.6447 24.8596 32.0957 24.3812 32.6441 24.2746C32.7812 24.2472 32.9336 24.2319 33.0768 24.2319ZM33.0768 23.7749C32.8939 23.7749 32.7172 23.7932 32.5557 23.8267C31.9189 23.9486 31.3888 24.4361 30.9957 24.9723C30.7672 25.2709 30.5265 26.1697 30.5296 26.1697C30.5357 26.1697 31.2334 26.3221 31.6569 26.3221C31.6965 26.3221 31.7331 26.3221 31.7696 26.319C32.2054 26.2764 32.7233 26.0509 33.0768 25.7797C33.5429 25.4141 34.1036 24.756 34.1858 24.0826C33.8689 23.8602 33.4637 23.7749 33.0768 23.7749Z" fill="#F49019"/>
<path d="M32.7326 23.3422C32.6869 23.3422 32.6412 23.3392 32.5985 23.3361C32.4218 23.3209 32.1019 23.2234 31.6997 23.0711C31.8307 22.8151 32.0592 22.4068 32.2116 22.2667C32.5894 21.9071 33.1713 21.4836 33.799 21.4775H33.8295C34.3261 21.4775 34.7862 21.6177 35.0848 21.8614C34.8685 22.3581 34.3261 22.8151 33.8508 23.065C33.5248 23.2356 33.0921 23.3422 32.7326 23.3422Z" fill="#FFCA28"/>
<path d="M33.8356 21.709C34.1311 21.709 34.5059 21.773 34.7953 21.9375C34.5638 22.3184 34.1372 22.6627 33.7564 22.8607C33.4547 23.013 33.0525 23.1136 32.7326 23.1136C32.693 23.1136 32.6564 23.1136 32.6229 23.1105C32.5224 23.1014 32.3243 23.0527 32.0257 22.9491C32.1446 22.7358 32.2817 22.5164 32.3731 22.4311C32.7174 22.1051 33.2475 21.712 33.8051 21.709H33.8356ZM33.8356 21.252C33.8234 21.252 33.8142 21.252 33.8021 21.252C33.1531 21.258 32.5437 21.642 32.0623 22.099C31.782 22.3519 31.3859 23.1928 31.3889 23.1959C31.392 23.1959 32.1842 23.528 32.5803 23.5645C32.629 23.5676 32.6808 23.5706 32.7326 23.5706C33.1378 23.5706 33.6101 23.4488 33.9635 23.269C34.4876 22.9948 35.1579 22.4463 35.359 21.7973C34.969 21.3982 34.3414 21.252 33.8356 21.252Z" fill="#F49019"/>
<path d="M33.8505 20.7704C33.7713 20.7704 33.6982 20.7674 33.625 20.7552C33.4514 20.7308 33.1284 20.6181 32.7415 20.4474C32.8847 20.1976 33.1315 19.8015 33.2929 19.6705C33.6738 19.3445 34.2497 18.9575 34.859 18.9575H34.9169C35.3191 18.9728 35.8432 19.0977 36.1844 19.4024C35.9437 19.8899 35.38 20.3195 34.8956 20.5449C34.5879 20.6851 34.1857 20.7704 33.8505 20.7704Z" fill="#FFCA28"/>
<path d="M34.8561 19.186C34.8713 19.186 34.8896 19.186 34.9079 19.186C35.2126 19.1982 35.5934 19.2774 35.8859 19.4633C35.6391 19.832 35.1913 20.1549 34.8043 20.3347C34.5209 20.4627 34.1584 20.5388 33.8506 20.5388C33.7806 20.5388 33.7166 20.5358 33.6587 20.5267C33.5612 20.5114 33.3631 20.4535 33.0706 20.3378C33.1986 20.1306 33.3479 19.9173 33.4423 19.8381C33.7897 19.5425 34.3168 19.186 34.8561 19.186ZM34.8561 18.729C34.2315 18.729 33.6313 19.0763 33.1468 19.4938C32.8543 19.7345 32.4186 20.5541 32.4216 20.5571C32.4247 20.5571 33.2016 20.9288 33.5947 20.9837C33.677 20.9959 33.7623 20.9989 33.8506 20.9989C34.2315 20.9989 34.6611 20.9014 34.9902 20.7552C35.5295 20.5053 36.2211 19.9904 36.4527 19.3536C36.0718 18.924 35.435 18.7503 34.9231 18.7321C34.9018 18.7321 34.8774 18.729 34.8561 18.729Z" fill="#F49019"/>
<path d="M34.8197 18.0985C34.6948 18.0985 34.5821 18.0894 34.4785 18.068C34.3078 18.0345 33.991 17.9035 33.6101 17.7146C33.7655 17.4739 34.0336 17.093 34.2042 16.9681C34.579 16.6787 35.1427 16.3374 35.7246 16.3374C35.7703 16.3374 35.816 16.3404 35.8617 16.3435C36.2609 16.3801 36.7789 16.5324 37.1049 16.8554C36.8367 17.3276 36.2517 17.7298 35.7551 17.9248C35.4809 18.0345 35.1305 18.0985 34.8197 18.0985Z" fill="#FFCA28"/>
<path d="M35.7247 16.5659C35.7643 16.5659 35.8039 16.569 35.8435 16.572C36.1482 16.5994 36.526 16.7 36.8033 16.9011C36.5351 17.2576 36.072 17.5562 35.6759 17.7146C35.423 17.8121 35.1001 17.87 34.8167 17.87C34.707 17.87 34.6065 17.8608 34.5212 17.8456C34.4237 17.8273 34.2317 17.7572 33.9453 17.6262C34.0854 17.4282 34.2439 17.221 34.3444 17.1479C34.6887 16.8797 35.2067 16.5659 35.7247 16.5659ZM35.7247 16.1089C35.1336 16.1089 34.5516 16.4105 34.0672 16.7822C33.7625 17.0047 33.2811 17.7999 33.2872 17.8029C33.2902 17.8029 34.0458 18.2143 34.4358 18.2904C34.5547 18.3118 34.6857 18.324 34.8197 18.324C35.1671 18.324 35.5419 18.2539 35.8435 18.1381C36.395 17.9187 37.114 17.4404 37.3822 16.8188C37.0257 16.3709 36.4011 16.1607 35.8892 16.115C35.8313 16.1119 35.7795 16.1089 35.7247 16.1089Z" fill="#F49019"/>
<path d="M34.8411 15.603C34.704 15.603 34.5547 15.6 34.3962 15.5908C34.448 15.2801 34.5516 14.7529 34.6705 14.5427C34.9477 14.0339 35.4139 13.3849 36.0781 13.1625C36.3584 13.065 36.6631 13.0132 36.9373 13.0132C37.175 13.0132 37.3913 13.0497 37.5772 13.1229C37.5223 13.7627 37.0714 14.4361 36.6844 14.8352C36.3493 15.1704 35.8526 15.4629 35.4505 15.5573C35.3621 15.5756 35.1854 15.603 34.8411 15.603Z" fill="#FFCA28"/>
<path d="M36.9372 13.2388C37.0774 13.2388 37.2054 13.254 37.3211 13.2814C37.2145 13.7811 36.8672 14.3174 36.5229 14.6708C36.2121 14.9816 35.7611 15.2467 35.3986 15.335C35.3346 15.3503 35.1792 15.3746 34.8379 15.3746C34.7831 15.3746 34.7252 15.3746 34.6643 15.3716C34.7191 15.0913 34.7953 14.7774 34.8715 14.6464C35.1274 14.1772 35.557 13.577 36.1511 13.3759C36.4071 13.2875 36.6844 13.2388 36.9372 13.2388ZM36.9372 12.7817C36.6082 12.7817 36.2822 12.8457 36.0049 12.9432C35.3315 13.1717 34.8227 13.7842 34.4723 14.4271C34.2651 14.7866 34.1311 15.8012 34.1372 15.8042C34.1463 15.8042 34.4815 15.8317 34.841 15.8317C35.0817 15.8317 35.3346 15.8195 35.5022 15.7799C35.9714 15.6671 36.4985 15.3411 36.8458 14.9938C37.3029 14.5246 37.8178 13.7232 37.8117 12.9767C37.5466 12.8396 37.2419 12.7817 36.9372 12.7817Z" fill="#F49019"/>
<mask id="mask0_263_270" style="mask-type:luminance" maskUnits="userSpaceOnUse" x="1" y="1" width="37" height="37">
<path d="M37.7812 1.21875H1.21875V37.7812H37.7812V1.21875Z" fill="white"/>
</mask>
<g mask="url(#mask0_263_270)">
<path d="M1.74292 41.3704V36.7209C1.74292 31.7728 9.4698 29.5516 17.1296 29.5425H17.1692C24.7956 29.5425 32.5164 32.0074 32.5164 36.7209V41.3704H1.74292Z" fill="url(#paint1_linear_263_270)"/>
<path d="M17.1722 29.9995C21.1026 29.9995 24.9173 30.6668 27.6412 31.8276C29.6583 32.6899 32.0623 34.2377 32.0623 36.7179V40.9104H2.20288V36.7179C2.20288 32.0866 9.70124 30.0056 17.1326 29.9965L17.1722 29.9995ZM17.1722 29.0854C17.1569 29.0854 17.1448 29.0854 17.1326 29.0854C9.36608 29.0946 1.28882 31.3036 1.28882 36.7209V41.8275H32.9763V36.7209C32.9733 31.6144 24.9722 29.0854 17.1722 29.0854Z" fill="#74B534"/>
</g>
<mask id="mask1_263_270" style="mask-type:luminance" maskUnits="userSpaceOnUse" x="1" y="1" width="37" height="37">
<path d="M37.7812 1.21875H1.21875V37.7812H37.7812V1.21875Z" fill="white"/>
</mask>
<g mask="url(#mask1_263_270)">
<path d="M30.7186 39.5453L28.2811 39.4691C26.1605 39.2528 24.7163 38.0158 24.9935 35.4716C25.5938 29.9507 31.6449 31.7605 32.1963 33.5521C33.019 36.2334 31.6631 39.6398 30.7186 39.5453Z" fill="#A56C43"/>
<path d="M30.7551 39.8411C30.7368 39.8411 30.7155 39.8411 30.6972 39.838L28.2688 39.7618C27.0013 39.6339 26.0202 39.1677 25.4078 38.4121C24.8045 37.6656 24.5638 36.6632 24.6979 35.4383C24.9508 33.1196 26.2305 31.6815 28.2079 31.4926C29.9995 31.322 32.117 32.297 32.4735 33.4639C33.1652 35.7125 32.3882 38.3694 31.5869 39.3444C31.2609 39.7466 30.9653 39.8411 30.7551 39.8411ZM28.6436 32.0654C28.5187 32.0654 28.3907 32.0715 28.2658 32.0837C27.2817 32.1782 25.5876 32.7449 25.286 35.5054C25.1702 36.5687 25.3652 37.4249 25.8679 38.0434C26.3767 38.6741 27.2238 39.0641 28.3085 39.1768L30.7246 39.253C30.7307 39.253 30.7368 39.253 30.746 39.253C30.8069 39.2591 30.9531 39.1921 31.1329 38.9727C31.8672 38.0769 32.5192 35.615 31.9129 33.6407C31.6813 32.885 30.1579 32.0654 28.6436 32.0654Z" fill="#875334"/>
<path d="M28.4882 38.3909C28.4059 38.9088 28.7594 39.3933 29.2773 39.4786L30.5966 39.6888C31.1146 39.7711 31.5991 39.4177 31.6844 38.8997C31.7666 38.3817 31.4132 37.8973 30.8952 37.812L29.5759 37.6017C29.058 37.5195 28.5705 37.8729 28.4882 38.3909Z" fill="#A56C43"/>
<path d="M28.8567 37.032C28.7775 37.553 29.134 38.0405 29.655 38.1227L31.3856 38.3878C31.9066 38.467 32.3941 38.1105 32.4764 37.5895C32.5556 37.0685 32.1991 36.581 31.6781 36.4988L29.9475 36.2337C29.4265 36.1545 28.9359 36.5109 28.8567 37.032Z" fill="#A56C43"/>
<path d="M31.535 38.6956C31.471 38.6956 31.407 38.6895 31.3431 38.6804L29.6124 38.4153C28.9299 38.3117 28.4607 37.6719 28.5674 36.9894C28.671 36.3069 29.3138 35.8377 29.9933 35.9443L31.727 36.2124C32.056 36.2642 32.3485 36.4379 32.5466 36.7091C32.7446 36.9772 32.8238 37.3093 32.7751 37.6384C32.7233 37.9674 32.5466 38.2599 32.2785 38.4549C32.056 38.6103 31.8001 38.6956 31.535 38.6956ZM29.1493 37.0777C29.0945 37.4373 29.3413 37.7755 29.7008 37.8303L31.4314 38.0954C31.6051 38.1228 31.7788 38.0802 31.922 37.9766C32.0652 37.873 32.1566 37.7176 32.184 37.5439C32.2114 37.3702 32.1688 37.1966 32.0652 37.0534C31.9616 36.9102 31.8062 36.8188 31.6325 36.7913L29.8988 36.5232C29.5424 36.4714 29.2042 36.7182 29.1493 37.0777Z" fill="#875334"/>
<path d="M28.9362 35.7278C28.8844 36.2397 29.2561 36.6998 29.7711 36.7516L31.8886 36.9679C32.4005 37.0197 32.8606 36.648 32.9124 36.1331C32.9642 35.6212 32.5925 35.1611 32.0775 35.1093L29.96 34.893C29.445 34.8412 28.988 35.2129 28.9362 35.7278Z" fill="#A56C43"/>
<path d="M31.983 37.2664C31.9404 37.2664 31.8977 37.2633 31.8551 37.2603L29.7375 37.044C29.4115 37.0104 29.1159 36.852 28.9088 36.5991C28.7016 36.3432 28.6041 36.0233 28.6376 35.6972C28.7077 35.0239 29.3109 34.5333 29.9843 34.6004L32.1019 34.8167C32.4279 34.8502 32.7234 35.0086 32.9306 35.2615C33.1378 35.5144 33.2353 35.8344 33.2018 36.1634C33.1683 36.4894 33.0098 36.785 32.757 36.9922C32.5376 37.1689 32.2664 37.2664 31.983 37.2664ZM29.8624 35.1823C29.5395 35.1823 29.2622 35.4291 29.2287 35.7551C29.2104 35.9258 29.2622 36.0903 29.3688 36.2244C29.4755 36.3554 29.6309 36.4376 29.7984 36.4559L31.916 36.6722C32.0866 36.6905 32.2512 36.6387 32.3852 36.5321C32.5163 36.4254 32.5985 36.2701 32.6168 36.1025C32.6351 35.9319 32.5833 35.7673 32.4766 35.6333C32.37 35.5022 32.2146 35.42 32.047 35.4017L29.9295 35.1854C29.9081 35.1823 29.8838 35.1823 29.8624 35.1823Z" fill="#875334"/>
<path d="M28.9117 34.0577C28.8873 34.5727 29.2865 35.0114 29.8014 35.0358L31.9281 35.1363C32.443 35.1607 32.8818 34.7616 32.9062 34.2466C32.9305 33.7317 32.5314 33.293 32.0165 33.2686L29.8898 33.1681C29.3748 33.1437 28.9361 33.5428 28.9117 34.0577Z" fill="#A56C43"/>
<path d="M31.9737 35.4289C31.9555 35.4289 31.9341 35.4289 31.9128 35.4289L29.7861 35.3284C29.457 35.3132 29.1554 35.17 28.936 34.9293C28.7166 34.6886 28.6008 34.3717 28.6161 34.0426C28.6496 33.3662 29.2255 32.8452 29.9019 32.8726L32.0286 32.9732C32.705 33.0067 33.229 33.5825 33.1986 34.2589C33.1833 34.588 33.0401 34.8896 32.7964 35.109C32.5709 35.3193 32.2784 35.4289 31.9737 35.4289ZM29.2072 34.07C29.198 34.2407 29.259 34.4052 29.3717 34.5301C29.4844 34.655 29.6429 34.7312 29.8135 34.7373L31.9402 34.8379C32.1078 34.847 32.2723 34.7861 32.4003 34.6733C32.5252 34.5575 32.6014 34.4021 32.6075 34.2315C32.6227 33.8811 32.3515 33.5795 31.9981 33.5643L29.8714 33.4637C29.5271 33.4363 29.2255 33.7196 29.2072 34.07Z" fill="#875334"/>
<path d="M32.1657 31.9677C31.9311 31.9098 31.1145 31.6447 30.5752 31.5259C30.3711 31.4802 29.8287 31.3797 29.6216 31.3766C28.9573 31.3644 26.8428 32.1383 26.3492 32.6258C26.1085 32.8635 24.5973 36.3278 27.5771 35.7854C28.8233 35.627 28.4942 34.1249 28.9055 33.7075C29.2194 33.3875 29.7282 32.9153 31.2334 33.4302C31.6538 33.5734 32.379 33.5673 32.6441 33.2474C33.1041 32.6898 32.8482 32.1383 32.1657 31.9677Z" fill="#A56C43"/>
<path d="M33.2382 32.3914C33.1224 32.0471 32.7933 31.7851 32.3363 31.6754C32.2571 31.6571 32.1108 31.6145 31.9341 31.5627C31.5776 31.4591 31.0871 31.3189 30.7154 31.2367C30.5265 31.194 29.9475 31.0874 29.6855 31.0813C27.6654 31.0356 26.73 31.715 26.1329 32.3914C25.7398 32.8332 25.8343 33.6193 25.9409 33.47C26.1511 33.1806 27.0987 32.3336 27.9397 32.0136C28.677 31.7333 29.1066 31.648 29.6825 31.6571C29.8592 31.6602 30.3711 31.7516 30.5874 31.7973C30.9378 31.8735 31.4161 32.0136 31.7665 32.1142C31.9554 32.169 32.1108 32.2147 32.1931 32.233C32.446 32.2939 32.6227 32.4158 32.6715 32.5682C32.7141 32.6992 32.7111 32.949 32.5679 33.1136C32.4186 33.2872 31.7726 33.336 31.3857 33.205C30.8372 33.0221 30.2461 32.7875 29.6672 32.9186C29.2285 33.0191 28.7105 33.2994 28.5368 33.7107C28.3662 34.1129 28.5094 35.158 27.8665 35.7826C27.6015 36.0386 26.9129 36.3585 26.9129 36.3585C26.9129 36.3585 27.6654 36.523 28.089 36.2823C28.6861 35.9411 28.9725 35.1793 29.0914 34.5639C29.1432 34.2896 29.134 33.8021 29.2193 33.7229C29.4844 33.4609 29.7922 33.077 31.1724 33.5371C31.6538 33.6955 32.5983 33.8509 32.9853 33.4C33.2565 33.077 33.3479 32.7175 33.2382 32.3914Z" fill="#875334"/>
</g>
<path d="M16.8798 32.6717C15.661 32.6717 14.6677 31.6906 14.6677 30.4871V27.751H19.5915V30.4871C19.5915 31.6936 18.5982 32.6717 17.3794 32.6717H16.8798Z" fill="#7A4C32"/>
<path d="M19.2868 28.0557V30.4871C19.2868 31.523 18.4306 32.367 17.3794 32.367H16.8798C15.8286 32.367 14.9724 31.523 14.9724 30.4871V28.0557H17.1296H19.2868ZM19.8962 27.4463H17.1296H14.363V30.4871C14.363 31.8612 15.4904 32.9764 16.8798 32.9764H17.3825C18.7719 32.9764 19.8992 31.8612 19.8992 30.4871V27.4463H19.8962Z" fill="#663B22"/>
<path d="M12.3123 29.7071L14.2135 29.5151L16.7546 32.9794L14.3201 36.3767L12.3123 29.7071Z" fill="#AED581"/>
<path d="M14.0704 29.8352L16.3769 32.9795L14.433 35.6943L12.7115 29.9723L14.0704 29.8352ZM14.3568 29.1953L11.9163 29.4421L14.2075 37.0593L17.1325 32.9765L14.3568 29.1953Z" fill="#85BD53"/>
<path d="M17.5073 32.9793L20.0576 29.5181L21.9527 29.7283L19.9509 36.3766L17.5073 32.9793Z" fill="#AED581"/>
<path d="M20.1977 29.8382L21.5566 29.9905L19.8382 35.6973L17.8821 32.9795L20.1977 29.8382ZM19.9174 29.1953L17.1326 32.9765L20.0667 37.0593L22.3519 29.4695L19.9174 29.1953Z" fill="#85BD53"/>
<mask id="mask2_263_270" style="mask-type:luminance" maskUnits="userSpaceOnUse" x="1" y="4" width="32" height="35">
<path d="M32.8667 21.2429C32.8667 30.6516 25.7828 38.9726 17.0443 39C8.31806 39.0275 1.24931 30.7156 1.21885 21.2429C1.18838 11.8311 8.44908 4.97559 17.1906 4.97559C25.932 4.97559 32.8667 11.8311 32.8667 21.2429Z" fill="white"/>
</mask>
<g mask="url(#mask2_263_270)">
<path d="M17.2333 29.0276C16.5325 29.0276 15.7373 28.8753 14.9299 28.5919C11.4747 27.3701 7.44067 23.6133 7.44067 17.0473C7.44067 8.29666 12.7148 5.19189 17.2303 5.19189C21.7458 5.19189 27.0199 8.29666 27.0199 17.0473C27.0199 23.6224 22.9797 27.3762 19.5215 28.5949C18.7202 28.8783 17.928 29.0276 17.2333 29.0276Z" fill="url(#paint2_linear_263_270)"/>
<path d="M17.2332 5.49658C19.7956 5.49658 22.1265 6.48682 23.7992 8.28447C25.7096 10.335 26.7181 13.3667 26.7181 17.0503C26.7181 23.4671 22.7877 27.1263 19.4239 28.3116C18.6531 28.5828 17.8974 28.726 17.2332 28.726C16.5659 28.726 15.8042 28.5797 15.0303 28.3055C11.6696 27.1172 7.74829 23.4549 7.74829 17.0503C7.74829 13.3667 8.75681 10.3381 10.6672 8.28447C12.3369 6.48682 14.6708 5.49658 17.2332 5.49658ZM17.2332 4.88721C11.9926 4.88721 7.13892 8.78416 7.13892 17.0473C7.13892 23.6864 11.2492 27.6108 14.8262 28.8783C15.6793 29.1799 16.502 29.3323 17.2332 29.3323C17.9584 29.3323 18.778 29.183 19.625 28.8844C23.2081 27.623 27.3275 23.6956 27.3275 17.0503C27.3275 8.78416 22.4738 4.88721 17.2332 4.88721Z" fill="#875334"/>
<mask id="mask3_263_270" style="mask-type:luminance" maskUnits="userSpaceOnUse" x="5" y="4" width="24" height="24">
<path d="M6.9042 27.0715L5.77686 15.5786C5.9292 9.35693 10.271 5.00294 16.5537 4.93591C16.5537 4.93591 17.5439 4.92677 18.6743 4.9999C24.9935 5.41122 28.3085 10.4386 28.3085 12.7329L27.3731 26.9922L6.9042 27.0715Z" fill="white"/>
</mask>
<g mask="url(#mask3_263_270)">
<path d="M28.6832 12.995C28.6832 12.995 28.994 2.15723 17.163 2.15723C5.33195 2.15723 5.59398 12.995 5.59398 12.995C5.59398 12.995 5.69452 26.8521 6.56898 28.6529C7.44343 30.4536 8.76273 30.3926 8.76273 30.3926C8.76273 30.3926 8.14421 22.3062 8.07413 18.4976C8.05585 17.6079 7.78773 14.3143 9.64632 13.8999C16.4591 12.3704 20.3134 8.75371 20.3134 8.75371C21.3159 10.9444 24.4511 13.0772 25.5754 13.8907C26.4986 14.558 26.3706 17.3032 26.3523 18.4702L25.423 30.3713C25.423 30.3713 26.849 30.484 27.7539 28.6529C28.6558 26.8186 28.6832 12.995 28.6832 12.995Z" fill="url(#paint3_radial_263_270)"/>
</g>
<path d="M18.4702 20.7338C18.4397 20.7217 18.4062 20.7125 18.3727 20.7095H16.2429C16.2094 20.7125 16.1789 20.7217 16.1454 20.7338C15.9534 20.8131 15.8468 21.0111 15.9382 21.2244C16.0296 21.4377 16.4531 22.0349 17.3063 22.0349C18.1594 22.0349 18.5829 21.4377 18.6743 21.2244C18.7688 21.0142 18.6621 20.8131 18.4702 20.7338Z" fill="#875334"/>
<path d="M12.3581 19.4721C13.1776 19.4721 13.8419 18.7846 13.8419 17.9365C13.8419 17.0884 13.1776 16.4009 12.3581 16.4009C11.5386 16.4009 10.8743 17.0884 10.8743 17.9365C10.8743 18.7846 11.5386 19.4721 12.3581 19.4721Z" fill="#42312C"/>
<path d="M22.2575 19.4721C23.077 19.4721 23.7413 18.7846 23.7413 17.9365C23.7413 17.0884 23.077 16.4009 22.2575 16.4009C21.438 16.4009 20.7737 17.0884 20.7737 17.9365C20.7737 18.7846 21.438 19.4721 22.2575 19.4721Z" fill="#42312C"/>
<path d="M14.5611 15.1793C14.2777 14.8046 13.6257 14.2622 12.3582 14.2622C11.0907 14.2622 10.4356 14.8076 10.1553 15.1793C10.0304 15.3438 10.0609 15.5358 10.1492 15.6516C10.2284 15.7582 10.4661 15.8588 10.7281 15.7704C10.9902 15.682 11.502 15.417 12.3582 15.4109C13.2144 15.417 13.7262 15.682 13.9883 15.7704C14.2503 15.8588 14.488 15.7613 14.5672 15.6516C14.6555 15.5358 14.686 15.3438 14.5611 15.1793Z" fill="#42312C"/>
<path d="M24.4634 15.1793C24.1801 14.8046 23.528 14.2622 22.2605 14.2622C20.993 14.2622 20.338 14.8076 20.0577 15.1793C19.9327 15.3438 19.9632 15.5358 20.0516 15.6516C20.1308 15.7582 20.3684 15.8588 20.6305 15.7704C20.8925 15.682 21.4044 15.417 22.2605 15.4109C23.1167 15.417 23.6286 15.682 23.8906 15.7704C24.1527 15.8588 24.3903 15.7613 24.4695 15.6516C24.5548 15.5358 24.5884 15.3438 24.4634 15.1793Z" fill="#42312C"/>
<path d="M19.7651 23.1986C18.8054 23.7683 15.664 23.7683 14.7043 23.1986C14.1528 22.8726 13.5922 23.3722 13.8207 23.8719C14.0461 24.3625 15.7615 25.5051 17.2423 25.5051C18.7231 25.5051 20.4172 24.3625 20.6426 23.8719C20.8711 23.3722 20.3166 22.8695 19.7651 23.1986Z" fill="#473530"/>
</g>
<path d="M29.0335 11.1973C29.0335 11.1973 28.9909 29.3262 17.172 29.253C5.3532 29.3292 5.73406 11.1973 5.73406 11.1973" stroke="#8C6239" stroke-width="2.4527" stroke-miterlimit="10" stroke-linecap="round" stroke-linejoin="round"/>
<path d="M17.1721 29.5484C17.1721 29.5484 16.779 30.557 15.798 30.9957C14.8199 31.4345 13.8449 31.4984 13.6255 31.1359C13.4031 30.7763 14.0186 30.1274 14.9997 29.6886C15.9777 29.2499 17.1721 29.5484 17.1721 29.5484Z" stroke="#8C6239" stroke-width="2.4527" stroke-miterlimit="10" stroke-linecap="round" stroke-linejoin="round"/>
<path d="M17.1721 29.5397C17.1721 29.5397 17.6627 30.5908 18.6407 31.0265C19.6188 31.4653 20.4993 31.4866 20.7187 31.1271C20.9381 30.7675 20.3256 30.1186 19.3445 29.6798C18.3665 29.2411 17.1721 29.5397 17.1721 29.5397Z" stroke="#8C6239" stroke-width="2.4527" stroke-miterlimit="10" stroke-linecap="round" stroke-linejoin="round"/>
<path d="M17.2027 14.5517C7.58063 14.5517 1.83423 12.3457 1.83423 8.65293C1.83423 5.88637 8.01024 2.9248 17.2027 2.9248C26.3951 2.9248 32.5711 5.88637 32.5711 8.65293C32.5711 12.2909 26.6815 14.5517 17.2027 14.5517Z" fill="url(#paint4_linear_263_270)"/>
<path d="M17.2025 3.37586C21.3036 3.37586 25.161 4.00352 28.0586 5.14305C30.5997 6.14242 32.117 7.45258 32.117 8.65C32.117 10.3045 30.7581 11.639 28.0829 12.614C25.4169 13.5829 21.6571 14.0948 17.2056 14.0948C7.86692 14.0948 2.29114 12.0595 2.29114 8.65C2.29114 7.45258 3.80849 6.13937 6.34958 5.14305C9.24716 4.00352 13.1015 3.37586 17.2025 3.37586ZM17.2025 2.46484C8.46411 2.46484 1.38013 5.2832 1.38013 8.65C1.38013 13.1716 8.46411 15.0058 17.2025 15.0058C25.941 15.0058 33.025 13.0253 33.025 8.65C33.028 5.2832 25.941 2.46484 17.2025 2.46484Z" fill="#E6C22D"/>
<path d="M17.2026 9.74088C13.7597 9.74088 12.0565 9.28385 11.2338 8.89689C10.5879 8.59525 10.399 8.3058 10.3472 8.18697L12.2789 2.51674C12.4465 2.02924 13.0071 1.68799 13.6408 1.68799H20.7431C21.3769 1.68799 21.9375 2.02924 22.1051 2.51369L24.0612 8.18393C23.921 8.46119 22.9704 9.74088 17.2026 9.74088Z" fill="url(#paint5_linear_263_270)"/>
<path d="M20.7431 2.13895C21.1818 2.13895 21.5779 2.35832 21.6815 2.66301L23.5614 8.11996C23.4457 8.23574 23.1867 8.43074 22.6443 8.63184C21.8308 8.93348 20.2282 9.29301 17.2026 9.29301C14.1771 9.29301 12.5744 8.93348 11.7609 8.63184C11.2155 8.43074 10.9596 8.23574 10.8438 8.11691L12.7024 2.66301C12.806 2.35832 13.2021 2.13895 13.6408 2.13895H20.7431ZM20.7431 1.24316H13.6408C12.8121 1.24316 12.0808 1.70629 11.8523 2.3766L9.87793 8.16566C9.87793 8.16566 9.87793 10.1888 17.2026 10.1888C24.5273 10.1888 24.5273 8.16566 24.5273 8.16566L22.5286 2.37051C22.297 1.70324 21.5688 1.24316 20.7431 1.24316Z" fill="#E6C22D"/>
</g>
<defs>
<radialGradient id="paint0_radial_263_270" cx="0" cy="0" r="1" gradientUnits="userSpaceOnUse" gradientTransform="translate(17.31 0.695454) scale(13.9589 13.6074)">
<stop stop-color="#554138"/>
<stop offset="1" stop-color="#3C2C23"/>
</radialGradient>
<linearGradient id="paint1_linear_263_270" x1="17.1305" y1="29.5431" x2="17.1305" y2="41.3699" gradientUnits="userSpaceOnUse">
<stop offset="0.1279" stop-color="#9CCC65"/>
<stop offset="0.3998" stop-color="#99C962"/>
<stop offset="0.6207" stop-color="#8FC059"/>
<stop offset="0.823" stop-color="#7EB24B"/>
<stop offset="1" stop-color="#689F38"/>
</linearGradient>
<linearGradient id="paint2_linear_263_270" x1="17.232" y1="28.8564" x2="17.232" y2="5.44948" gradientUnits="userSpaceOnUse">
<stop stop-color="#8D5738"/>
<stop offset="0.2163" stop-color="#97603D"/>
<stop offset="0.5728" stop-color="#A26941"/>
<stop offset="1" stop-color="#A56C43"/>
</linearGradient>
<radialGradient id="paint3_radial_263_270" cx="0" cy="0" r="1" gradientUnits="userSpaceOnUse" gradientTransform="translate(17.137 -0.128032) scale(11.6916)">
<stop stop-color="#554138"/>
<stop offset="1" stop-color="#3C2C23"/>
</radialGradient>
<linearGradient id="paint4_linear_263_270" x1="17.2031" y1="3.78262" x2="17.2031" y2="14.4354" gradientUnits="userSpaceOnUse">
<stop offset="0.00280289" stop-color="#FFF59D"/>
<stop offset="0.5532" stop-color="#FEE565"/>
<stop offset="0.9964" stop-color="#FDD835"/>
</linearGradient>
<linearGradient id="paint5_linear_263_270" x1="17.2023" y1="1.69067" x2="17.2023" y2="9.77845" gradientUnits="userSpaceOnUse">
<stop offset="0.00280289" stop-color="#FFF59D"/>
<stop offset="0.1651" stop-color="#FFF394"/>
<stop offset="0.4264" stop-color="#FEEC7D"/>
<stop offset="0.7522" stop-color="#FEE156"/>
<stop offset="0.9964" stop-color="#FDD835"/>
</linearGradient>
<clipPath id="clip0_263_270">
<rect width="39" height="39" fill="white"/>
</clipPath>
</defs>
</svg>
