<svg width="39" height="39" viewBox="0 0 39 39" fill="none" xmlns="http://www.w3.org/2000/svg">
<path d="M26.425 31.6799C33.37 28.0676 36.0704 19.5116 32.4566 12.5695C28.8428 5.62745 20.2832 2.92812 13.3382 6.54041C6.39322 10.1527 3.69276 18.7087 7.30657 25.6508C10.9204 32.5929 19.48 35.2922 26.425 31.6799Z" fill="#7AD2FA"/>
<path d="M26.6846 31.5412C33.5476 27.7926 36.0768 19.1756 32.3199 12.3155C30.8239 9.58617 28.5563 7.53417 25.9332 6.30029C26.9194 7.26594 27.7915 8.39252 28.4893 9.66664C32.2394 16.5267 29.7169 25.1438 22.854 28.8924C18.7214 31.1455 13.965 31.1321 10.0068 29.2679C14.3474 33.4926 21.0896 34.5924 26.6846 31.5412Z" fill="#4BC3F7"/>
<path d="M13.831 31.9166C12.8448 30.951 11.9727 29.8244 11.275 28.5503C7.5248 21.6902 10.0473 13.0731 16.9102 9.32454C21.0428 7.07137 25.7992 7.08478 29.7574 8.94901C25.4169 4.72432 18.6746 3.62455 13.0863 6.68243C6.22332 10.431 3.69415 19.0481 7.45101 25.9082C8.94704 28.6374 11.2146 30.6827 13.831 31.9166Z" fill="#A5E1FB"/>
<path d="M20.6068 20.0473C19.6609 21.1135 19.7145 22.9509 20.7611 23.9702C21.2307 24.4396 21.8747 24.7213 22.351 25.2108C22.8341 25.6936 23.1024 26.5117 22.7066 27.0415C22.2638 27.5847 21.385 27.4774 20.741 27.1957C20.0969 26.9141 19.4328 26.5184 18.7351 26.6324C17.8093 26.7867 17.286 27.92 17.5208 28.832C17.7489 29.7306 18.5271 30.4011 19.3858 30.8236C20.2177 31.2394 21.1368 31.4674 22.0022 31.8094C22.5456 32.0374 23.1024 32.3593 23.411 32.8354C23.8538 32.7147 24.3033 32.5806 24.746 32.4196C27.51 31.407 29.7641 29.6367 31.3541 27.417C30.965 27.0214 30.4417 26.6928 29.9922 26.4313C29.3146 26.0021 28.5566 25.6802 27.7918 25.4589C27.2148 25.3114 26.6379 25.1974 26.1079 24.909C25.0412 24.3256 24.471 22.9375 24.8467 21.7707C24.9473 21.4019 25.1553 21.0398 25.115 20.6575C25.0748 20.2753 24.8198 19.9534 24.5045 19.7053C23.3909 18.8067 21.5661 18.9542 20.6068 20.0473Z" fill="#7BDE9E"/>
<path d="M23.4176 32.8352C23.8604 32.7145 24.3099 32.5804 24.7526 32.4195C27.5166 31.4069 29.7707 29.6365 31.3607 27.4169C30.9716 27.0213 30.4483 26.6927 30.0055 26.4378C29.3279 26.0087 28.5699 25.6868 27.8051 25.4655C27.5837 25.4119 27.369 25.3582 27.1543 25.2979C26.0139 26.7329 24.5715 27.9735 22.8608 28.9056C21.5123 29.6433 20.1035 30.1328 18.6746 30.401C18.8959 30.5687 19.1442 30.7095 19.3924 30.8369C20.2243 31.2527 21.1434 31.4807 22.0088 31.8227C22.5589 32.044 23.109 32.3658 23.4176 32.8352Z" fill="#51D27F"/>
<path d="M24.6184 5.75732C24.5848 5.93838 24.5379 6.12615 24.4641 6.3005C24.189 6.96438 23.6389 7.46732 23.1022 7.95014C22.5722 8.42626 22.0154 8.93591 21.7605 9.60649C21.5055 10.2771 21.6464 11.1555 22.2636 11.5311C23.3035 12.148 24.7123 10.9477 25.8058 11.4707C26.1949 12.309 25.0343 13.3484 25.5173 14.1397C25.8058 14.6158 26.4901 14.6292 27.0402 14.5353C27.5903 14.4347 28.2209 14.3073 28.657 14.656C29.1199 15.0114 29.1132 15.7222 28.9186 16.2721C28.7174 16.822 28.3618 17.3182 28.2545 17.8949C28.0666 18.8539 28.6167 19.8732 29.4419 20.3962C30.2671 20.926 31.3136 21.0333 32.2864 20.8858C32.8231 20.8053 33.4 20.6779 33.9837 20.4968C33.9971 20.4096 34.0038 20.3225 34.0105 20.2286C34.5271 13.6904 30.522 7.84285 24.6184 5.75732Z" fill="#7BDE9E"/>
<path d="M32.2932 20.8855C32.8299 20.7983 33.4068 20.6776 33.9905 20.4966C34.0039 20.4094 34.0106 20.3155 34.0173 20.2283C34.3662 15.8494 32.6756 11.7722 29.7506 8.93566C29.7506 8.93566 29.7506 8.93566 29.7439 8.93566C29.0193 8.59366 28.268 8.31872 27.5032 8.11084C27.8654 8.60707 28.2009 9.12343 28.4961 9.67331C30.3879 13.1268 30.6831 17.0162 29.6365 20.5167C30.4282 20.9459 31.3942 21.0263 32.2932 20.8855Z" fill="#51D27F"/>
<path d="M17.6348 5.12695C12.3819 5.96519 7.8938 9.7473 6.31055 15.0315C6.49168 14.9846 6.67282 14.9376 6.85395 14.9175C8.21581 14.7163 9.6716 15.3802 10.4028 16.5538C10.5639 16.8086 10.698 17.0902 10.8859 17.3316C11.4293 18.0223 12.4624 18.2839 13.2607 17.9285C14.0658 17.5663 14.5689 16.6342 14.4146 15.7692C14.314 15.1589 13.9383 14.6426 13.6633 14.0927C13.3949 13.5428 13.2406 12.8521 13.5693 12.3358C13.8712 11.8596 14.5018 11.6786 15.0654 11.6987C15.6289 11.7255 16.179 11.9066 16.7425 11.9803C17.3061 12.0474 17.93 11.9803 18.3392 11.5847C18.7753 11.1622 18.8424 10.4715 18.6948 9.88141C18.5539 9.298 18.2386 8.76153 18.0105 8.19824C17.6952 7.42707 17.5543 6.58883 17.5744 5.7573C17.5878 5.53601 17.608 5.32813 17.6348 5.12695Z" fill="#7BDE9E"/>
<path d="M10.4832 16.6812C11.6438 13.6501 13.8443 11.0013 16.9169 9.32483C17.3529 9.09012 17.789 8.87553 18.2385 8.69448C18.1647 8.52683 18.0842 8.36589 18.0171 8.19153C17.7018 7.42036 17.5676 6.58213 17.5877 5.7506C17.5944 5.54272 17.6078 5.32813 17.6414 5.12695C12.3885 5.97189 7.90039 9.754 6.31714 15.0382C6.49827 14.9913 6.67941 14.9443 6.86054 14.9242C8.2224 14.7231 9.67819 15.3936 10.4094 16.5605C10.4296 16.594 10.4564 16.6342 10.4832 16.6812Z" fill="#A7EABF"/>
<path d="M7.81984 31.9705L4.45879 37.6303C3.77451 38.777 2.25164 39.0855 1.17825 38.2875C0.574468 37.8449 0.265869 37.1609 0.265869 36.4769C0.265869 35.9337 0.460421 35.3905 0.856233 34.9547L5.29738 30.0996L7.81984 31.9705Z" fill="#FBB381"/>
<path d="M7.81985 31.9706L4.4588 37.6303C3.77452 38.777 2.25165 39.0855 1.17826 38.2875C0.641566 37.8986 0.339675 37.3152 0.279297 36.7116C0.332966 36.7586 0.393344 36.8122 0.453723 36.8525C1.52711 37.6505 3.04998 37.342 3.73427 36.1953L6.72634 31.1592L7.81985 31.9706Z" fill="#FA9957"/>
<path d="M6.2566 27.0347L4.68676 29.147C4.50563 29.3951 4.5593 29.7371 4.80081 29.9182L8.08136 32.3524C8.32958 32.5335 8.67172 32.4798 8.85286 32.2384L10.416 30.1261L6.2566 27.0347Z" fill="#D3D8D9"/>
<path d="M5.948 30.743L5.93458 30.7363C5.68636 30.5552 5.6394 30.2065 5.82053 29.9584L7.37024 27.8662L6.24318 27.0347L4.68676 29.147C4.50563 29.3951 4.5593 29.7438 4.80081 29.9249L5.93458 30.7631C5.94129 30.7564 5.948 30.7497 5.948 30.743Z" fill="#EDEDED"/>
<path d="M6.89392 31.4139L6.90733 31.4206C7.14214 31.6151 7.49099 31.5816 7.68554 31.3469L9.34929 29.3418L10.4294 30.2337L8.75222 32.2588C8.55767 32.4936 8.20211 32.5271 7.97401 32.3326L6.88721 31.434C6.88721 31.4273 6.88721 31.4206 6.89392 31.4139Z" fill="#A8B1B3"/>
<path d="M17.5474 16.1446C13.8979 13.4354 8.74561 14.1999 6.04201 17.8546C3.33841 21.5026 4.1032 26.6527 7.75272 29.3618C11.4022 32.0643 16.5545 31.2998 19.2581 27.6518C21.9684 23.9971 21.1969 18.8537 17.5474 16.1446ZM17.6011 26.4247C15.575 29.1539 11.7108 29.7239 8.98041 27.7055C6.24998 25.6803 5.67303 21.8177 7.69905 19.0884C9.72508 16.3591 13.596 15.7892 16.3197 17.8076C19.0501 19.8261 19.6271 23.6887 17.6011 26.4247Z" fill="#FB8A8A"/>
<path d="M32.5548 12.1883C28.7241 5.18739 19.9626 2.61905 12.9587 6.44139C8.53098 8.86221 5.78713 13.2948 5.47183 18.2169C3.64707 21.1004 3.76782 24.7484 5.59258 27.4777L4.47223 28.9865C4.20389 29.3486 4.27768 29.865 4.63995 30.1332L4.79425 30.2472L0.661703 34.7804C-0.331182 35.8667 -0.203717 37.5969 1.02397 38.5021C2.21812 39.394 3.92883 39.052 4.69362 37.7645L7.82657 32.487L7.9272 32.5607C8.28947 32.829 8.80604 32.7552 9.07439 32.3931L10.2014 30.8776C10.7985 31.0586 11.409 31.1726 12.0195 31.2129C16.3332 34.0092 21.9752 34.4116 26.8121 31.7762C30.1933 29.9253 32.6554 26.8742 33.7422 23.1725C34.8223 19.4709 34.4064 15.5681 32.5548 12.1883ZM13.2136 6.91751C14.5218 6.20669 15.9038 5.71045 17.3261 5.44222C17.2523 6.36092 17.3932 7.38021 17.7621 8.29221C17.9902 8.86221 18.2988 9.38527 18.433 9.94185C18.7148 11.1087 18.1043 11.8798 16.776 11.7122C16.2258 11.6451 15.669 11.4574 15.0787 11.4306C13.4619 11.3568 12.583 12.6242 13.4686 14.294C11.9994 14.1531 10.4765 14.4013 9.08781 15.0383C8.35656 14.6762 7.55152 14.5287 6.70622 14.6695C7.82657 11.3501 10.1209 8.60739 13.2136 6.91751ZM6.52509 15.2596C7.13558 15.1121 7.7662 15.0987 8.47732 15.3535C7.57164 15.8631 6.7666 16.5337 6.09573 17.3585C6.18295 16.6544 6.32383 15.9503 6.52509 15.2596ZM4.23072 37.4963C3.63365 38.5021 2.2852 38.7838 1.33928 38.0797C0.366521 37.3554 0.286017 35.9874 1.05752 35.1425L5.23031 30.5691L7.3838 32.1651L4.23072 37.4963ZM8.64503 32.0779C8.55111 32.2053 8.36998 32.2322 8.24251 32.1383L4.96197 29.704C4.8345 29.6102 4.80767 29.4291 4.90159 29.3017L5.92131 27.927C6.39092 28.5372 6.94774 29.0871 7.59177 29.5699C8.24251 30.0527 8.94021 30.4283 9.66475 30.6965L8.64503 32.0779ZM7.91379 29.1408C4.39173 26.5255 3.64707 21.5363 6.25674 18.009C8.87313 14.475 13.851 13.7374 17.3932 16.3594C19.0972 17.6268 20.2108 19.4776 20.5261 21.5765C20.8414 23.6755 20.3114 25.7744 19.0435 27.4844C16.4338 31.0117 11.4358 31.756 7.91379 29.1408ZM20.9689 24.4936C21.1031 24.5942 21.2439 24.6948 21.3848 24.7886C21.6666 24.9831 21.9416 25.1642 22.1697 25.3989C22.5655 25.7945 22.8003 26.4785 22.5052 26.8742C22.0758 27.4039 21.1634 27.1022 20.5462 26.8138C20.4322 26.7602 20.3181 26.7065 20.1974 26.6596C20.5529 25.9689 20.8079 25.2379 20.9689 24.4936ZM13.0929 31.2263C14.6963 31.1391 16.2661 30.6026 17.6011 29.6504C17.95 30.2003 18.5202 30.6898 19.2716 31.0653C20.62 31.7426 22.0892 31.8969 22.9211 32.668C19.5466 33.4258 16.0447 32.8759 13.0929 31.2263ZM26.5505 31.3067C25.571 31.8432 24.5513 32.2456 23.5182 32.5205C22.6528 31.4409 20.9219 31.2933 19.5131 30.5825C19.0837 30.3679 18.4196 29.9522 18.0305 29.3218C18.5605 28.8859 19.0502 28.383 19.4728 27.8063C19.6406 27.585 19.7882 27.357 19.929 27.1223C20.0565 27.1759 20.184 27.2296 20.3114 27.2899C21.2037 27.7057 22.2972 27.9538 22.9211 27.1961C23.4243 26.5322 23.1022 25.5732 22.5454 25.0166C22.2838 24.7484 21.9752 24.5405 21.68 24.3394C21.4586 24.1918 21.2574 24.0443 21.0695 23.8766C21.1701 23.0988 21.1701 22.3008 21.0494 21.5028C20.989 21.0803 20.8951 20.6645 20.7676 20.2622C20.781 20.2488 20.7877 20.2354 20.8012 20.2219C21.6599 19.2429 23.3236 19.0954 24.3501 19.9068C24.9941 20.4164 24.9136 20.7919 24.719 21.3351C24.1018 23.0585 24.8465 24.5137 25.9937 25.1374C27.1006 25.7409 28.0868 25.5263 29.8646 26.6529C30.2671 26.8876 30.6696 27.1491 31.0051 27.4442C29.831 29.02 28.3216 30.3344 26.5505 31.3067ZM33.2256 23.0183C32.803 24.4668 32.1522 25.8079 31.3204 27.015C30.9581 26.7065 30.5422 26.4383 30.1464 26.2036C28.3216 25.0435 27.2482 25.2111 26.2553 24.6746C25.3362 24.1717 24.7056 22.9646 25.2289 21.5229C25.4905 20.7919 25.5375 20.1616 24.6922 19.491C23.5182 18.5656 21.6599 18.6796 20.5798 19.6989C20.0095 18.2102 19.0301 16.9092 17.7152 15.9369C16.6351 15.1389 15.4141 14.6158 14.1327 14.3945C14.0589 14.2537 13.9784 14.1196 13.9113 13.9788C13.2874 12.6913 13.8845 11.9268 15.0585 11.9737C15.5885 12.0006 16.152 12.1816 16.7156 12.2554C18.4397 12.47 19.3252 11.3367 18.963 9.82785C18.8087 9.21091 18.4934 8.66774 18.272 8.10445C17.9366 7.27962 17.789 6.30727 17.8829 5.36845C20.0565 5.05328 22.1966 5.24104 24.3098 5.95186C24.1018 6.70292 23.5249 7.23268 22.9345 7.76245C22.4314 8.21174 21.8075 8.76833 21.519 9.52609C21.1701 10.4448 21.2909 12.5236 24.1354 11.7994C25.7924 11.3769 25.8125 11.6451 25.3966 12.7114C24.7123 14.4549 25.6784 15.0584 27.0939 14.817C27.1274 14.8237 29.3614 14.3007 28.6704 16.1984C28.4692 16.7349 28.1136 17.2378 27.9929 17.8615C27.7916 18.8808 28.3283 20.0275 29.3011 20.6377C29.9115 21.0267 30.6696 21.2278 31.5015 21.2278C31.7699 21.2278 32.0516 21.2077 32.3334 21.1608C32.7896 21.0937 33.2391 20.9931 33.6751 20.8724C33.5812 21.5899 33.4336 22.3075 33.2256 23.0183ZM32.2462 20.6243C31.2264 20.7785 30.2805 20.6243 29.5828 20.175C28.7912 19.6721 28.3551 18.7601 28.5094 17.9487C28.6101 17.4189 28.9522 16.9294 29.1602 16.3661C30.1396 13.6502 27.0134 14.2805 26.9866 14.2738C25.6985 14.4951 25.4369 14.019 25.8796 12.8924C26.584 11.0886 25.8662 10.7868 23.9878 11.2696C21.9886 11.7793 21.6397 10.6527 22.002 9.70715C22.2435 9.07009 22.8138 8.56045 23.27 8.15139C23.9408 7.55456 24.5647 6.97115 24.813 6.11951C27.9191 7.29304 30.4751 9.50597 32.0852 12.4431C33.4135 14.8774 33.977 17.5865 33.7422 20.289C33.2525 20.4298 32.756 20.5438 32.2462 20.6243Z" fill="#333333"/>
<path d="M17.8158 26.579C18.8355 25.2043 19.2582 23.5077 19.01 21.8044C18.755 20.1012 17.8561 18.6057 16.4808 17.5865C13.6296 15.4741 9.59768 16.0709 7.48445 18.9209C6.46473 20.2956 6.04208 21.9922 6.2903 23.6955C6.54523 25.3988 7.4442 26.8942 8.81948 27.9135C11.664 30.0191 15.7026 29.4357 17.8158 26.579ZM9.14149 27.4843C7.88026 26.5455 7.05509 25.1775 6.82029 23.615C6.58549 22.0593 6.97459 20.5035 7.9138 19.2428C9.85261 16.6342 13.5491 16.0843 16.1588 18.0223C17.42 18.9612 18.2452 20.3291 18.48 21.8916C18.7148 23.4474 18.3257 25.0031 17.3865 26.2638C15.4477 28.8724 11.7579 29.4223 9.14149 27.4843Z" fill="#333333"/>
<path d="M17.3266 26.7624C19.5432 24.1791 19.2451 20.2887 16.6607 18.073C14.0764 15.8572 10.1843 16.1552 7.9677 18.7385C5.75105 21.3218 6.04916 25.2122 8.63355 27.4279C11.2179 29.6436 15.1099 29.3457 17.3266 26.7624Z" fill="#7AD2FA"/>
<g opacity="0.4">
<path d="M17.3461 18.7598L13.502 28.8522C12.6433 28.9729 11.7511 28.9125 10.9058 28.6577L15.2798 17.1772C15.6421 17.3449 15.9909 17.5528 16.3264 17.8009C16.7021 18.0892 17.0442 18.4111 17.3461 18.7598Z" fill="white"/>
<path d="M14.0455 16.748L9.69824 28.1547C9.45673 28.0205 9.21521 27.8663 8.98712 27.6987C6.25669 25.6735 5.67974 21.8109 7.70576 19.0816C9.2018 17.0564 11.7243 16.2182 14.0455 16.748Z" fill="white"/>
</g>
<path d="M8.81947 27.9203C5.96828 25.8079 5.37121 21.771 7.48444 18.9277C9.59768 16.0844 13.6229 15.4742 16.4808 17.5932C17.8561 18.6125 18.755 20.1147 19.01 21.8112C19.2649 23.5078 18.8422 25.2044 17.8158 26.5858C15.7026 29.4291 11.6707 30.0326 8.81947 27.9203ZM9.14148 27.4844C11.7512 29.4224 15.4476 28.8725 17.3865 26.2572C18.3257 24.9965 18.7081 23.4408 18.48 21.885C18.2452 20.3292 17.4267 18.9545 16.1588 18.0157C13.5491 16.0777 9.85261 16.6276 7.9138 19.2429C5.97499 21.8515 6.5251 25.5531 9.14148 27.4844Z" fill="#333333"/>
</svg>
